<mxfile host="app.diagrams.net" agent="Mozilla/5.0 (X11; Linux x86_64) AppleWebKit/537.36 (KHTML, like Gecko) Chrome/130.0.0.0 Safari/537.36" version="28.2.1">
  <diagram name="Page-1" id="LeaJvdFCvx1ip06_ie6o">
    <mxGraphModel dx="1123" dy="814" grid="1" gridSize="10" guides="1" tooltips="1" connect="1" arrows="1" fold="1" page="1" pageScale="1" pageWidth="850" pageHeight="1100" math="0" shadow="0">
      <root>
        <mxCell id="0" />
        <mxCell id="1" parent="0" />
        <mxCell id="WWhPSrkNJmOEkyNhjcpj-1" value="Web-view" style="rounded=0;whiteSpace=wrap;html=1;hachureGap=4;fontFamily=Architects Daughter;fontSource=https%3A%2F%2Ffonts.googleapis.com%2Fcss%3Ffamily%3DArchitects%2BDaughter;fillColor=#dae8fc;strokeColor=#6c8ebf;" parent="1" vertex="1">
          <mxGeometry x="360" y="80" width="120" height="60" as="geometry" />
        </mxCell>
        <mxCell id="WWhPSrkNJmOEkyNhjcpj-2" value="Customer API" style="rounded=0;whiteSpace=wrap;html=1;hachureGap=4;fontFamily=Architects Daughter;fontSource=https%3A%2F%2Ffonts.googleapis.com%2Fcss%3Ffamily%3DArchitects%2BDaughter;fillColor=#d5e8d4;strokeColor=#82b366;" parent="1" vertex="1">
          <mxGeometry x="280" y="240" width="120" height="60" as="geometry" />
        </mxCell>
        <mxCell id="WWhPSrkNJmOEkyNhjcpj-4" value="Machine API" style="rounded=0;whiteSpace=wrap;html=1;hachureGap=4;fontFamily=Architects Daughter;fontSource=https%3A%2F%2Ffonts.googleapis.com%2Fcss%3Ffamily%3DArchitects%2BDaughter;fillColor=#d5e8d4;strokeColor=#82b366;" parent="1" vertex="1">
          <mxGeometry x="440" y="240" width="120" height="60" as="geometry" />
        </mxCell>
        <mxCell id="ZHrLg_sLOMn4dHBDERiv-3" value="" style="endArrow=classic;html=1;rounded=0;hachureGap=4;fontFamily=Architects Daughter;fontSource=https%3A%2F%2Ffonts.googleapis.com%2Fcss%3Ffamily%3DArchitects%2BDaughter;exitX=0.5;exitY=1;exitDx=0;exitDy=0;entryX=0.5;entryY=0;entryDx=0;entryDy=0;edgeStyle=orthogonalEdgeStyle;curved=1;" edge="1" parent="1" source="WWhPSrkNJmOEkyNhjcpj-1" target="WWhPSrkNJmOEkyNhjcpj-2">
          <mxGeometry width="50" height="50" relative="1" as="geometry">
            <mxPoint x="420" y="320" as="sourcePoint" />
            <mxPoint x="470" y="270" as="targetPoint" />
          </mxGeometry>
        </mxCell>
        <mxCell id="ZHrLg_sLOMn4dHBDERiv-4" value="" style="endArrow=classic;html=1;rounded=0;hachureGap=4;fontFamily=Architects Daughter;fontSource=https%3A%2F%2Ffonts.googleapis.com%2Fcss%3Ffamily%3DArchitects%2BDaughter;exitX=0.5;exitY=1;exitDx=0;exitDy=0;entryX=0.5;entryY=0;entryDx=0;entryDy=0;edgeStyle=orthogonalEdgeStyle;curved=1;" edge="1" parent="1" source="WWhPSrkNJmOEkyNhjcpj-1" target="WWhPSrkNJmOEkyNhjcpj-4">
          <mxGeometry width="50" height="50" relative="1" as="geometry">
            <mxPoint x="540" y="190" as="sourcePoint" />
            <mxPoint x="450" y="290" as="targetPoint" />
          </mxGeometry>
        </mxCell>
        <mxCell id="ZHrLg_sLOMn4dHBDERiv-5" value="Database" style="rounded=0;whiteSpace=wrap;html=1;hachureGap=4;fontFamily=Architects Daughter;fontSource=https%3A%2F%2Ffonts.googleapis.com%2Fcss%3Ffamily%3DArchitects%2BDaughter;fillColor=#ffe6cc;strokeColor=#d79b00;" vertex="1" parent="1">
          <mxGeometry x="360" y="400" width="120" height="60" as="geometry" />
        </mxCell>
        <mxCell id="ZHrLg_sLOMn4dHBDERiv-6" value="" style="endArrow=classic;html=1;rounded=0;hachureGap=4;fontFamily=Architects Daughter;fontSource=https%3A%2F%2Ffonts.googleapis.com%2Fcss%3Ffamily%3DArchitects%2BDaughter;exitX=0.5;exitY=1;exitDx=0;exitDy=0;entryX=0.5;entryY=0;entryDx=0;entryDy=0;edgeStyle=orthogonalEdgeStyle;curved=1;" edge="1" parent="1" source="WWhPSrkNJmOEkyNhjcpj-2" target="ZHrLg_sLOMn4dHBDERiv-5">
          <mxGeometry width="50" height="50" relative="1" as="geometry">
            <mxPoint x="370" y="470" as="sourcePoint" />
            <mxPoint x="420" y="420" as="targetPoint" />
          </mxGeometry>
        </mxCell>
        <mxCell id="ZHrLg_sLOMn4dHBDERiv-7" value="" style="endArrow=classic;html=1;rounded=0;hachureGap=4;fontFamily=Architects Daughter;fontSource=https%3A%2F%2Ffonts.googleapis.com%2Fcss%3Ffamily%3DArchitects%2BDaughter;exitX=0.5;exitY=1;exitDx=0;exitDy=0;entryX=0.5;entryY=0;entryDx=0;entryDy=0;edgeStyle=orthogonalEdgeStyle;curved=1;" edge="1" parent="1" source="WWhPSrkNJmOEkyNhjcpj-4" target="ZHrLg_sLOMn4dHBDERiv-5">
          <mxGeometry width="50" height="50" relative="1" as="geometry">
            <mxPoint x="490" y="370" as="sourcePoint" />
            <mxPoint x="575" y="470" as="targetPoint" />
          </mxGeometry>
        </mxCell>
        <mxCell id="ZHrLg_sLOMn4dHBDERiv-8" value="" style="rounded=0;whiteSpace=wrap;html=1;hachureGap=4;fontFamily=Architects Daughter;fontSource=https%3A%2F%2Ffonts.googleapis.com%2Fcss%3Ffamily%3DArchitects%2BDaughter;fillColor=#f5f5f5;strokeColor=#666666;fontColor=#333333;" vertex="1" parent="1">
          <mxGeometry x="440" y="480" width="590" height="200" as="geometry" />
        </mxCell>
        <mxCell id="ZHrLg_sLOMn4dHBDERiv-9" value="" style="endArrow=none;html=1;rounded=0;hachureGap=4;fontFamily=Architects Daughter;fontSource=https%3A%2F%2Ffonts.googleapis.com%2Fcss%3Ffamily%3DArchitects%2BDaughter;exitX=0;exitY=1;exitDx=0;exitDy=0;entryX=0;entryY=1;entryDx=0;entryDy=0;fillColor=#f5f5f5;strokeColor=#666666;" edge="1" parent="1" source="ZHrLg_sLOMn4dHBDERiv-5" target="ZHrLg_sLOMn4dHBDERiv-8">
          <mxGeometry width="50" height="50" relative="1" as="geometry">
            <mxPoint x="420" y="500" as="sourcePoint" />
            <mxPoint x="470" y="450" as="targetPoint" />
          </mxGeometry>
        </mxCell>
        <mxCell id="ZHrLg_sLOMn4dHBDERiv-10" value="" style="endArrow=none;html=1;rounded=0;hachureGap=4;fontFamily=Architects Daughter;fontSource=https%3A%2F%2Ffonts.googleapis.com%2Fcss%3Ffamily%3DArchitects%2BDaughter;exitX=1;exitY=0;exitDx=0;exitDy=0;entryX=1;entryY=0;entryDx=0;entryDy=0;fillColor=#f5f5f5;strokeColor=#666666;" edge="1" parent="1" source="ZHrLg_sLOMn4dHBDERiv-5" target="ZHrLg_sLOMn4dHBDERiv-8">
          <mxGeometry width="50" height="50" relative="1" as="geometry">
            <mxPoint x="360" y="790" as="sourcePoint" />
            <mxPoint x="440" y="1130" as="targetPoint" />
          </mxGeometry>
        </mxCell>
        <mxCell id="ZHrLg_sLOMn4dHBDERiv-13" value="customer" style="whiteSpace=wrap;html=1;align=center;hachureGap=4;fontFamily=Architects Daughter;fontSource=https%3A%2F%2Ffonts.googleapis.com%2Fcss%3Ffamily%3DArchitects%2BDaughter;fillColor=#f8cecc;strokeColor=#b85450;" vertex="1" parent="1">
          <mxGeometry x="510" y="560" width="100" height="40" as="geometry" />
        </mxCell>
        <mxCell id="ZHrLg_sLOMn4dHBDERiv-14" value="machine" style="whiteSpace=wrap;html=1;align=center;hachureGap=4;fontFamily=Architects Daughter;fontSource=https%3A%2F%2Ffonts.googleapis.com%2Fcss%3Ffamily%3DArchitects%2BDaughter;fillColor=#f8cecc;strokeColor=#b85450;" vertex="1" parent="1">
          <mxGeometry x="760" y="560" width="100" height="40" as="geometry" />
        </mxCell>
        <mxCell id="ZHrLg_sLOMn4dHBDERiv-15" value="" style="edgeStyle=entityRelationEdgeStyle;fontSize=12;html=1;endArrow=ERoneToMany;rounded=0;hachureGap=4;fontFamily=Architects Daughter;fontSource=https%3A%2F%2Ffonts.googleapis.com%2Fcss%3Ffamily%3DArchitects%2BDaughter;exitX=1;exitY=0.5;exitDx=0;exitDy=0;entryX=0;entryY=0.5;entryDx=0;entryDy=0;" edge="1" parent="1" source="ZHrLg_sLOMn4dHBDERiv-13" target="ZHrLg_sLOMn4dHBDERiv-14">
          <mxGeometry width="100" height="100" relative="1" as="geometry">
            <mxPoint x="680" y="640" as="sourcePoint" />
            <mxPoint x="780" y="540" as="targetPoint" />
          </mxGeometry>
        </mxCell>
        <mxCell id="ZHrLg_sLOMn4dHBDERiv-16" value="cid" style="ellipse;whiteSpace=wrap;html=1;align=center;fontStyle=4;hachureGap=4;fontFamily=Architects Daughter;fontSource=https%3A%2F%2Ffonts.googleapis.com%2Fcss%3Ffamily%3DArchitects%2BDaughter;fillColor=#fff2cc;strokeColor=#d6b656;" vertex="1" parent="1">
          <mxGeometry x="450" y="490" width="100" height="40" as="geometry" />
        </mxCell>
        <mxCell id="ZHrLg_sLOMn4dHBDERiv-17" value="email" style="ellipse;whiteSpace=wrap;html=1;align=center;hachureGap=4;fontFamily=Architects Daughter;fontSource=https%3A%2F%2Ffonts.googleapis.com%2Fcss%3Ffamily%3DArchitects%2BDaughter;fillColor=#fff2cc;strokeColor=#d6b656;" vertex="1" parent="1">
          <mxGeometry x="570" y="490" width="100" height="40" as="geometry" />
        </mxCell>
        <mxCell id="ZHrLg_sLOMn4dHBDERiv-18" value="l_name" style="ellipse;whiteSpace=wrap;html=1;align=center;hachureGap=4;fontFamily=Architects Daughter;fontSource=https%3A%2F%2Ffonts.googleapis.com%2Fcss%3Ffamily%3DArchitects%2BDaughter;fillColor=#fff2cc;strokeColor=#d6b656;" vertex="1" parent="1">
          <mxGeometry x="450" y="630" width="100" height="40" as="geometry" />
        </mxCell>
        <mxCell id="ZHrLg_sLOMn4dHBDERiv-19" value="f_name" style="ellipse;whiteSpace=wrap;html=1;align=center;hachureGap=4;fontFamily=Architects Daughter;fontSource=https%3A%2F%2Ffonts.googleapis.com%2Fcss%3Ffamily%3DArchitects%2BDaughter;fillColor=#fff2cc;strokeColor=#d6b656;" vertex="1" parent="1">
          <mxGeometry x="570" y="630" width="100" height="40" as="geometry" />
        </mxCell>
        <mxCell id="ZHrLg_sLOMn4dHBDERiv-20" value="" style="endArrow=none;html=1;rounded=0;" edge="1" parent="1" source="ZHrLg_sLOMn4dHBDERiv-18" target="ZHrLg_sLOMn4dHBDERiv-13">
          <mxGeometry width="50" height="50" relative="1" as="geometry">
            <mxPoint x="620" y="520" as="sourcePoint" />
            <mxPoint x="670" y="470" as="targetPoint" />
          </mxGeometry>
        </mxCell>
        <mxCell id="ZHrLg_sLOMn4dHBDERiv-21" value="" style="endArrow=none;html=1;rounded=0;" edge="1" parent="1" source="ZHrLg_sLOMn4dHBDERiv-19" target="ZHrLg_sLOMn4dHBDERiv-13">
          <mxGeometry width="50" height="50" relative="1" as="geometry">
            <mxPoint x="560" y="660" as="sourcePoint" />
            <mxPoint x="600" y="580" as="targetPoint" />
          </mxGeometry>
        </mxCell>
        <mxCell id="ZHrLg_sLOMn4dHBDERiv-22" value="" style="endArrow=none;html=1;rounded=0;" edge="1" parent="1" source="ZHrLg_sLOMn4dHBDERiv-13" target="ZHrLg_sLOMn4dHBDERiv-17">
          <mxGeometry width="50" height="50" relative="1" as="geometry">
            <mxPoint x="650" y="710" as="sourcePoint" />
            <mxPoint x="610" y="630" as="targetPoint" />
          </mxGeometry>
        </mxCell>
        <mxCell id="ZHrLg_sLOMn4dHBDERiv-23" value="" style="endArrow=none;html=1;rounded=0;" edge="1" parent="1" source="ZHrLg_sLOMn4dHBDERiv-16" target="ZHrLg_sLOMn4dHBDERiv-13">
          <mxGeometry width="50" height="50" relative="1" as="geometry">
            <mxPoint x="730" y="675" as="sourcePoint" />
            <mxPoint x="763" y="660" as="targetPoint" />
          </mxGeometry>
        </mxCell>
        <mxCell id="ZHrLg_sLOMn4dHBDERiv-24" value="&lt;span style=&quot;border-bottom: 1px dotted&quot;&gt;cid&lt;/span&gt;" style="ellipse;whiteSpace=wrap;html=1;align=center;fillColor=#fff2cc;strokeColor=#d6b656;" vertex="1" parent="1">
          <mxGeometry x="690" y="490" width="100" height="40" as="geometry" />
        </mxCell>
        <mxCell id="ZHrLg_sLOMn4dHBDERiv-25" value="mid" style="ellipse;whiteSpace=wrap;html=1;align=center;fontStyle=4;fillColor=#fff2cc;strokeColor=#d6b656;" vertex="1" parent="1">
          <mxGeometry x="830" y="490" width="100" height="40" as="geometry" />
        </mxCell>
        <mxCell id="ZHrLg_sLOMn4dHBDERiv-26" value="address" style="ellipse;whiteSpace=wrap;html=1;align=center;fillColor=#fff2cc;strokeColor=#d6b656;" vertex="1" parent="1">
          <mxGeometry x="690" y="630" width="100" height="40" as="geometry" />
        </mxCell>
        <mxCell id="ZHrLg_sLOMn4dHBDERiv-27" value="next_service" style="ellipse;whiteSpace=wrap;html=1;align=center;fillColor=#fff2cc;strokeColor=#d6b656;" vertex="1" parent="1">
          <mxGeometry x="830" y="630" width="100" height="40" as="geometry" />
        </mxCell>
        <mxCell id="ZHrLg_sLOMn4dHBDERiv-28" value="" style="endArrow=none;html=1;rounded=0;" edge="1" parent="1" source="ZHrLg_sLOMn4dHBDERiv-26" target="ZHrLg_sLOMn4dHBDERiv-14">
          <mxGeometry width="50" height="50" relative="1" as="geometry">
            <mxPoint x="700" y="650" as="sourcePoint" />
            <mxPoint x="750" y="600" as="targetPoint" />
          </mxGeometry>
        </mxCell>
        <mxCell id="ZHrLg_sLOMn4dHBDERiv-29" value="" style="endArrow=none;html=1;rounded=0;" edge="1" parent="1" source="ZHrLg_sLOMn4dHBDERiv-27" target="ZHrLg_sLOMn4dHBDERiv-14">
          <mxGeometry width="50" height="50" relative="1" as="geometry">
            <mxPoint x="760" y="691" as="sourcePoint" />
            <mxPoint x="791" y="660" as="targetPoint" />
          </mxGeometry>
        </mxCell>
        <mxCell id="ZHrLg_sLOMn4dHBDERiv-30" value="" style="endArrow=none;html=1;rounded=0;" edge="1" parent="1" source="ZHrLg_sLOMn4dHBDERiv-14" target="ZHrLg_sLOMn4dHBDERiv-25">
          <mxGeometry width="50" height="50" relative="1" as="geometry">
            <mxPoint x="881" y="751" as="sourcePoint" />
            <mxPoint x="850" y="720" as="targetPoint" />
          </mxGeometry>
        </mxCell>
        <mxCell id="ZHrLg_sLOMn4dHBDERiv-31" value="" style="endArrow=none;html=1;rounded=0;" edge="1" parent="1" source="ZHrLg_sLOMn4dHBDERiv-14" target="ZHrLg_sLOMn4dHBDERiv-24">
          <mxGeometry width="50" height="50" relative="1" as="geometry">
            <mxPoint x="810" y="741" as="sourcePoint" />
            <mxPoint x="841" y="710" as="targetPoint" />
          </mxGeometry>
        </mxCell>
        <mxCell id="ZHrLg_sLOMn4dHBDERiv-33" value="last_service" style="ellipse;whiteSpace=wrap;html=1;align=center;fillColor=#fff2cc;strokeColor=#d6b656;" vertex="1" parent="1">
          <mxGeometry x="910" y="560" width="100" height="40" as="geometry" />
        </mxCell>
        <mxCell id="ZHrLg_sLOMn4dHBDERiv-34" value="" style="endArrow=none;html=1;rounded=0;" edge="1" parent="1" source="ZHrLg_sLOMn4dHBDERiv-33" target="ZHrLg_sLOMn4dHBDERiv-14">
          <mxGeometry width="50" height="50" relative="1" as="geometry">
            <mxPoint x="810" y="630" as="sourcePoint" />
            <mxPoint x="860" y="580" as="targetPoint" />
          </mxGeometry>
        </mxCell>
      </root>
    </mxGraphModel>
  </diagram>
</mxfile>
